PathFileType	4	(X/Y/Z)	C:\Users\WrightLab\Desktop\Jo\P5V127.trc
DataRate	CameraRate	NumFrames	NumMarkers	Units	OrigDataRate	OrigDataStartFrame	OrigNumFrames
100.00	100.00	       8	19	mm	100.00	160	       636
Frame#	Time	Headset_Front			Headset_Back			Headset_Left			Headset_Right			Left_Shoulder			Right_Shoulder			Sternum			C7			Left Elbow			Right Elbow			Left Wrist			Right Wrist			Left ASIS			Right ASIS			S2			Left Knee			Right Knee			Left Ankle			Right Ankle			
		X1	Y1	Z1	X2	Y2	Z2	X3	Y3	Z3	X4	Y4	Z4	X5	Y5	Z5	X6	Y6	Z6	X7	Y7	Z7	X8	Y8	Z8	X9	Y9	Z9	X10	Y10	Z10	X11	Y11	Z11	X12	Y12	Z12	X13	Y13	Z13	X14	Y14	Z14	X15	Y15	Z15	X16	Y16	Z16	X17	Y17	Z17	X18	Y18	Z18	X19	Y19	Z19	

160	1.590	221.69577	1564.95605	-350.26187	331.79984	1743.66370	-614.76575										141.35530	1424.85510	-587.98724				309.80154	1500.62305	-745.40485	667.37762	1216.67200	-694.08539	55.48524	1151.54285	-646.80048	643.98718	1045.37878	-534.00616	113.40054	982.93549	-471.95001	502.66498	906.32629	-604.83167	233.01253	916.39783	-534.52612	333.40961	964.31915	-848.87476	491.54416	470.15475	-735.85205	336.75882	517.71155	-472.15750	360.68396	100.81477	-986.32758	437.25217	94.70158	-488.80750	
161	1.600	222.27995	1563.50549	-341.63492	332.37558	1742.47900	-606.59607										143.49179	1422.77161	-579.14929				311.25751	1499.26538	-737.17615	667.95630	1215.32739	-684.22394	57.49251	1149.52795	-640.19214	645.67828	1044.79163	-523.76538	114.87729	981.52740	-465.27438	506.36856	906.32159	-594.65540	235.38322	915.11932	-524.62878	338.20779	961.87671	-839.33264	492.25372	468.96680	-729.21875	342.45612	515.58472	-464.64163	362.50513	103.84879	-984.38733	438.85223	93.76808	-488.46664	
162	1.610				332.70032	1741.31372	-598.50287										143.86897	1420.51978	-571.71375				312.64767	1497.49768	-728.60315	669.73816	1215.86023	-675.79272	59.58710	1147.07324	-632.31598	648.25555	1044.70642	-515.15704	116.61284	979.60748	-457.80981	509.88730	906.13330	-583.84436	238.48064	913.52960	-516.71619	342.84561	960.27881	-830.41119	495.17410	467.78534	-722.20917	347.42920	513.46912	-457.32861	363.05750	105.52574	-983.64050	444.82129	90.97103	-485.33023	
163	1.620				332.97128	1740.17102	-590.28247										144.23485	1419.62891	-564.64368				313.43845	1495.95398	-720.73633	671.89429	1216.09753	-666.88025	61.94920	1144.62671	-625.76520	650.06049	1044.68066	-505.82718	118.15583	977.60382	-450.33374	513.76367	906.47864	-573.24603	242.69583	912.72070	-505.89166	348.54504	957.98425	-820.96405	497.83606	467.01852	-714.83215	352.96771	510.91718	-449.56967	367.09573	110.05455	-980.65094	449.21246	90.02943	-482.35733	
164	1.630				332.77380	1739.59680	-582.20410										145.50371	1416.81592	-556.49438				314.63510	1495.00671	-712.58704	674.04224	1216.19800	-658.39386	63.39276	1142.78564	-618.94910	650.90430	1045.55750	-496.57385	120.45676	975.36963	-442.95587	516.79327	905.94934	-561.78546	245.81334	911.18372	-495.62057	353.83435	956.11975	-811.82520	500.64883	466.09918	-707.41931	357.67096	507.67502	-442.05719	368.54825	112.14516	-978.73389	451.30356	89.23402	-479.15140	
165	1.640	423.57849	1644.47363	-453.94418	332.43945	1739.34814	-573.40991										149.33252	1413.42004	-548.51550				315.32782	1493.70117	-703.47955	675.83044	1216.72314	-649.98328	65.63864	1140.79272	-611.10150	652.24133	1045.72424	-487.68329	122.24781	973.89453	-436.10629	520.66174	906.35870	-551.37054	249.36496	910.82410	-486.37604	359.79987	954.19928	-801.12482	502.03925	464.76477	-699.71838	364.93854	505.95349	-433.40384	373.14313	116.91521	-974.61621	452.36932	90.34827	-477.48926	
166	1.650	422.95712	1645.06738	-445.04218	332.21182	1739.49683	-563.49579										149.83670	1412.59888	-540.67120				316.62732	1493.63538	-695.08417	675.95135	1216.27979	-639.32172	67.65595	1138.48987	-603.40399	653.66180	1045.82593	-478.31900	123.48423	971.88568	-428.29651	523.08411	907.05688	-539.73236	252.90340	910.11108	-475.57101	364.65948	953.02295	-792.23944	505.49194	464.54211	-692.50079	373.06689	506.47433	-425.84073	379.95618	122.88125	-970.11285	454.15463	91.25474	-474.69409	
167	1.660	423.89813	1645.64111	-436.71698	331.58740	1739.84070	-554.67609										151.42194	1411.69067	-534.15784	370.60291	1294.92957	-481.50220	317.33890	1493.59387	-686.52435	676.13275	1216.69263	-629.75720	69.82426	1138.28821	-596.53436	655.36151	1046.78162	-469.36356	125.79507	970.40228	-420.03397	526.60339	908.67072	-528.21387	256.13052	909.68512	-466.46286	370.06915	952.05554	-781.85815	508.77252	465.09564	-683.28162	380.38974	509.02658	-416.69623	383.17224	126.97654	-967.87201	454.14453	92.77269	-473.43204	
